<?xml version="1.0" encoding="UTF-8" standalone="no" ?>
<!DOCTYPE svg PUBLIC "-//W3C//DTD SVG 1.1//EN" "http://www.w3.org/Graphics/SVG/1.1/DTD/svg11.dtd">
<svg
  width="100%"
  height="100%"
  viewBox="0 0 252 144"
  version="1.1"
  xmlns="http://www.w3.org/2000/svg"
  xmlns:xlink="http://www.w3.org/1999/xlink"
  xml:space="preserve"
  xmlns:serif="http://www.serif.com/"
  style="fill-rule:evenodd;clip-rule:evenodd;stroke-miterlimit:10;"
>
    <rect id="Page-1" serif:id="Page 1" x="0" y="0" width="252" height="144" style="fill:none;" />
    <clipPath id="_clip1">
    <rect id="Page-11" serif:id="Page 1" x="0" y="0" width="252" height="144" />
  </clipPath>
    <g clip-path="url(#_clip1)">
    <g id="Layer-2" serif:id="Layer 2" transform="matrix(1,0,0,1,-149.571,-5.15604)">
      <g transform="matrix(1,0,0,1,149.571,5.15604)">
        <path
          d="M54.981,29.073C59.913,28.215 65.077,28.2 70.285,29.156C93.935,33.497 109.61,56.233 105.267,79.895C100.923,103.558 78.195,119.244 54.545,114.902C37.309,111.739 24.31,98.806 20.207,82.864M20.128,61.537C22.219,53.078 26.699,45.753 32.704,40.16"
          style="fill:none;stroke:rgb(255,0,255);stroke-width:1px;"
        />
      </g>
      <g transform="matrix(1,0,0,1,149.571,5.15604)">
        <path
          d="M6.549,82.835C7.801,89.428 10.248,95.91 13.962,101.971C30.411,128.815 65.495,137.248 92.326,120.807"
          style="fill:none;stroke:rgb(255,0,255);stroke-width:1px;"
        />
      </g>
      <g transform="matrix(1,0,0,1,149.571,5.15604)">
        <path d="M32.758,23.598C18.591,32.28 9.558,46.161 6.61,61.282" style="fill:none;stroke:rgb(255,0,255);stroke-width:1px;" />
      </g>
      <g transform="matrix(1.32578,0.243372,0.243372,-1.32578,199.55,109.916)">
        <ellipse cx="4.69" cy="25.549" rx="25.963" ry="25.976" style="fill:none;stroke:rgb(255,0,255);stroke-width:0.74px;" />
      </g>
      <g transform="matrix(1.34793,0,0,1.34793,203.674,15.2546)">
        <path
          d="M61.112,36.027C56.942,15.593 40.781,-1.256 19.02,-5.25M61.029,57.407C61.122,56.962 61.21,56.514 61.293,56.064M30.657,94.799C45.712,88.175 57.413,74.622 61.029,57.407"
          style="fill:none;fill-rule:nonzero;stroke:rgb(255,0,255);stroke-width:0.74px;"
        />
      </g>
      <g transform="matrix(1.34793,0,0,1.34793,201.38,79.5361)">
        <path
          d="M0,-2.897C0.8,-7.255 4.981,-10.139 9.339,-9.339C13.696,-8.539 16.581,-4.358 15.781,0C14.981,4.357 10.8,7.242 6.442,6.442C2.084,5.642 -0.8,1.461 0,-2.897M29.325,2.486C31.498,-9.352 23.663,-20.71 11.825,-22.883C-0.013,-25.056 -11.371,-17.221 -13.544,-5.383C-15.717,6.455 -7.882,17.813 3.956,19.986C15.794,22.159 27.152,14.324 29.325,2.486"
          style="fill:rgb(255,0,255);fill-rule:nonzero;"
        />
      </g>
      <g transform="matrix(1.32581,0.243209,0.243209,-1.32581,211.567,78.7673)">
        <path
          d="M0.17,-0.015C0.688,-0.016 1.109,0.405 1.11,0.924C1.109,1.443 0.689,1.863 0.169,1.863C-0.349,1.864 -0.77,1.443 -0.77,0.925C-0.77,0.405 -0.349,-0.015 0.17,-0.015"
          style="fill:rgb(255,0,255);fill-rule:nonzero;"
        />
      </g>
      <g transform="matrix(1.32581,0.243209,0.243209,-1.32581,211.567,78.7673)">
        <path
          d="M0.17,-0.015C0.688,-0.016 1.109,0.405 1.11,0.924C1.109,1.443 0.689,1.863 0.169,1.863C-0.349,1.864 -0.77,1.443 -0.77,0.925C-0.77,0.405 -0.349,-0.015 0.17,-0.015"
          style="fill:rgb(255,0,255);fill-rule:nonzero;"
        />
      </g>
      <g transform="matrix(1.32578,0.243355,0.243355,-1.32578,207.47,89.5496)">
        <ellipse cx="1.715" cy="9.34" rx="9.497" ry="9.497" style="fill:none;stroke:white;stroke-width:0.74px;" />
      </g>
    </g>
    <g transform="matrix(1,0,0,1,98.1007,17.0845)">
      <g transform="matrix(22.1363,0,0,22.1363,10.9766,62.6274)">
        <path
          d="M0.504,-0.667L0.504,-0.272C0.504,-0.214 0.501,-0.199 0.485,-0.186C0.467,-0.169 0.428,-0.163 0.351,-0.163C0.276,-0.163 0.241,-0.169 0.225,-0.185C0.211,-0.199 0.208,-0.215 0.208,-0.288L0.005,-0.288C0.003,-0.243 0.003,-0.237 0.003,-0.218C0.003,-0.124 0.015,-0.08 0.048,-0.047C0.093,-0.004 0.168,0.01 0.365,0.01C0.552,0.01 0.62,-0.005 0.664,-0.055C0.697,-0.094 0.707,-0.142 0.707,-0.268L0.707,-0.667L0.504,-0.667Z"
          style="fill-rule:nonzero;"
        />
      </g>
      <g transform="matrix(22.1363,0,0,22.1363,27.6965,62.6274)">
        <path
          d="M0.043,-0.667L0.043,-0.36C0.044,-0.252 0.044,-0.252 0.045,-0.23C0.05,-0.132 0.061,-0.091 0.094,-0.057C0.144,-0.004 0.224,0.01 0.479,0.01C0.634,0.01 0.701,0.006 0.761,-0.006C0.837,-0.022 0.888,-0.075 0.899,-0.151C0.905,-0.198 0.906,-0.209 0.909,-0.36L0.909,-0.667L0.706,-0.667L0.706,-0.36C0.706,-0.346 0.705,-0.314 0.704,-0.291C0.701,-0.228 0.696,-0.21 0.68,-0.193C0.658,-0.169 0.616,-0.163 0.476,-0.163C0.303,-0.163 0.264,-0.174 0.253,-0.227C0.248,-0.254 0.248,-0.255 0.246,-0.36L0.246,-0.667L0.043,-0.667Z"
          style="fill-rule:nonzero;"
        />
      </g>
      <g transform="matrix(22.1363,0,0,22.1363,48.9101,62.6274)">
        <path
          d="M0.047,-0.667L0.047,-0L0.25,-0L0.25,-0.255L0.361,-0.255L0.66,-0L0.968,-0L0.55,-0.34L0.936,-0.671L0.625,-0.671L0.361,-0.425L0.25,-0.425L0.25,-0.667L0.047,-0.667Z"
          style="fill-rule:nonzero;"
        />
      </g>
      <g transform="matrix(22.1363,0,0,22.1363,70.013,62.6274)">
        <path
          d="M0.047,-0.667L0.047,-0L0.789,-0L0.789,-0.16L0.247,-0.16L0.247,-0.266L0.758,-0.266L0.758,-0.413L0.247,-0.413L0.247,-0.51L0.785,-0.51L0.785,-0.667L0.047,-0.667Z"
          style="fill-rule:nonzero;"
        />
      </g>
      <g transform="matrix(22.1363,0,0,22.1363,87.9726,62.6274)">
        <path d="M0.047,-0.667L0.047,-0L0.734,-0L0.734,-0.17L0.26,-0.17L0.26,-0.667L0.047,-0.667Z" style="fill-rule:nonzero;" />
      </g>
      <g transform="matrix(22.1363,0,0,22.1363,105.246,62.6274)">
        <path
          d="M0.77,-0L1.001,-0L0.652,-0.667L0.336,-0.667L-0.017,-0L0.215,-0L0.272,-0.113L0.713,-0.113L0.77,-0ZM0.642,-0.259L0.344,-0.259L0.473,-0.512L0.513,-0.512L0.642,-0.259Z"
          style="fill-rule:nonzero;"
        />
      </g>
      <g transform="matrix(22.1363,0,0,22.1363,127.146,62.6274)">
        <path
          d="M0.047,-0L0.527,-0C0.751,-0.001 0.762,-0.002 0.8,-0.015C0.859,-0.035 0.884,-0.084 0.884,-0.179C0.884,-0.286 0.857,-0.325 0.769,-0.34C0.836,-0.359 0.859,-0.398 0.859,-0.493C0.859,-0.614 0.823,-0.656 0.714,-0.664C0.684,-0.666 0.684,-0.666 0.526,-0.667L0.047,-0.667L0.047,-0ZM0.24,-0.404L0.24,-0.51L0.526,-0.51C0.618,-0.509 0.621,-0.509 0.632,-0.507C0.653,-0.502 0.662,-0.487 0.662,-0.459C0.662,-0.435 0.655,-0.418 0.64,-0.412C0.627,-0.406 0.598,-0.404 0.526,-0.404L0.24,-0.404ZM0.24,-0.16L0.24,-0.271L0.527,-0.271C0.645,-0.27 0.645,-0.27 0.655,-0.268C0.678,-0.263 0.687,-0.249 0.687,-0.218C0.687,-0.19 0.68,-0.175 0.663,-0.168C0.648,-0.161 0.648,-0.161 0.527,-0.16L0.24,-0.16Z"
          style="fill-rule:nonzero;"
        />
      </g>
    </g>
  </g>
</svg>
