<?xml version="1.0" encoding="utf-8"?>

<!DOCTYPE svg PUBLIC "-//W3C//DTD SVG 1.1//EN" "http://www.w3.org/Graphics/SVG/1.1/DTD/svg11.dtd">
<!-- Uploaded to: SVG Repo, www.svgrepo.com, Generator: SVG Repo Mixer Tools -->
<svg height="800px" width="800px" version="1.1" id="_x32_" xmlns="http://www.w3.org/2000/svg" xmlns:xlink="http://www.w3.org/1999/xlink" 
	 viewBox="0 0 512 512"  xml:space="preserve">
<g>
	<path class="st0" d="M449.531,105.602L288.463,8.989C278.473,2.994,267.235,0,256.01,0c-11.238,0-22.483,2.994-32.466,8.989
		L62.475,105.602c-19.012,11.406-30.647,31.949-30.647,54.117v192.562c0,22.168,11.635,42.711,30.647,54.117l161.069,96.613
		c9.982,5.988,21.228,8.989,32.466,8.989c11.226,0,22.463-3.001,32.453-8.989l161.069-96.613
		c19.013-11.406,30.64-31.95,30.64-54.117V159.719C480.172,137.551,468.544,117.008,449.531,105.602z M250.599,492.733
		c-6.028-0.745-11.929-2.713-17.32-5.949L72.209,390.171c-13.306-7.989-21.456-22.369-21.456-37.89V159.719
		c0-6.022,1.235-11.862,3.518-17.234l196.328,117.76V492.733z M59.669,133.114c3.364-4.464,7.593-8.318,12.54-11.286l161.069-96.613
		c6.995-4.196,14.85-6.29,22.731-6.29c7.868,0,15.724,2.095,22.718,6.29l161.069,96.613c4.942,2.968,9.184,6.821,12.54,11.286
		L256.01,250.881L59.669,133.114z M461.253,352.281c0,15.521-8.15,29.901-21.456,37.89l-161.069,96.613
		c-5.397,3.236-11.292,5.204-17.32,5.949V260.246l196.328-117.76c2.282,5.371,3.518,11.212,3.518,17.234V352.281z"/>
	<path class="st0" d="M382.343,115.779c-9.828-7.284-26.022-7.465-36.159-0.416c-10.15,7.049-10.405,18.677-0.577,25.948
		c9.828,7.277,26.022,7.466,36.159,0.416C391.917,134.671,392.172,123.057,382.343,115.779z"/>
	<path class="st0" d="M165.62,113.564c-9.828-7.278-26.022-7.459-36.172-0.41c-10.137,7.056-10.392,18.67-0.571,25.948
		c9.835,7.284,26.028,7.459,36.165,0.416C175.194,132.456,175.449,120.842,165.62,113.564z"/>
	<path class="st0" d="M273.358,115.102c-9.493-7.029-25.136-7.21-34.937-0.396c-9.801,6.814-10.056,18.039-0.557,25.068
		c9.499,7.028,25.142,7.21,34.943,0.396C282.609,133.356,282.864,122.131,273.358,115.102z"/>
	<path class="st0" d="M89.289,248.303c11.158,6.083,20.194,1.96,20.194-9.19c0-11.158-9.036-25.129-20.194-31.211
		c-11.158-6.082-20.208-1.967-20.208,9.191C69.081,228.243,78.131,242.22,89.289,248.303z"/>
	<path class="st0" d="M202.061,309.771c11.158,6.082,20.207,1.967,20.207-9.184c0-11.158-9.05-25.135-20.207-31.218
		c-11.151-6.075-20.194-1.96-20.194,9.198C181.867,289.718,190.91,303.688,202.061,309.771z"/>
	<path class="st0" d="M89.289,361.082c11.158,6.082,20.194,1.967,20.194-9.19c0-11.158-9.036-25.129-20.194-31.211
		c-11.158-6.083-20.208-1.967-20.208,9.19C69.081,341.029,78.131,355,89.289,361.082z"/>
	<path class="st0" d="M202.061,422.55c11.158,6.082,20.207,1.967,20.207-9.191c0-11.151-9.05-25.128-20.207-31.211
		c-11.151-6.076-20.194-1.96-20.194,9.191C181.867,402.497,190.91,416.468,202.061,422.55z"/>
	<path class="st0" d="M361.948,282.911c-17.858,9.728-32.319,32.084-32.319,49.928c0,17.85,14.461,24.437,32.319,14.709
		c17.844-9.734,32.319-32.09,32.319-49.941C394.267,279.762,379.792,273.176,361.948,282.911z"/>
</g>
</svg>